<svg width="40" height="40" viewBox="0 0 40 40" fill="none" xmlns="http://www.w3.org/2000/svg">
<path d="M8.3335 7.50007C8.3335 6.39498 8.74322 5.33516 9.47253 4.55374C10.2018 3.77233 11.191 3.33334 12.2224 3.33334L27.7779 3.33334C28.8093 3.33334 29.7985 3.77233 30.5278 4.55374C31.2571 5.33516 31.6668 6.39498 31.6668 7.50007V35.6255C31.6667 35.814 31.6189 35.9988 31.5286 36.1604C31.4382 36.3221 31.3085 36.4544 31.1535 36.5433C30.9985 36.6323 30.8238 36.6745 30.6481 36.6655C30.4725 36.6565 30.3024 36.5966 30.156 36.4922L20.0002 30.6275L9.84433 36.4922C9.69792 36.5966 9.52783 36.6565 9.35217 36.6655C9.17651 36.6745 9.00187 36.6323 8.84683 36.5433C8.69179 36.4544 8.56217 36.3221 8.47177 36.1604C8.38138 35.9988 8.33359 35.814 8.3335 35.6255V7.50007ZM12.2224 5.4167C11.7067 5.4167 11.2121 5.6362 10.8475 6.02691C10.4828 6.41761 10.2779 6.94753 10.2779 7.50007V33.6797L19.4616 28.5087C19.6211 28.395 19.8085 28.3343 20.0002 28.3343C20.1918 28.3343 20.3792 28.395 20.5388 28.5087L29.7224 33.6797V7.50007C29.7224 6.94753 29.5175 6.41761 29.1529 6.02691C28.7882 5.6362 28.2936 5.4167 27.7779 5.4167H12.2224Z" fill="#8A91AB"/>
</svg>
